<svg width="572" height="278" viewBox="0 0 572 278" fill="none" xmlns="http://www.w3.org/2000/svg">
<path d="M488.719 48.6478C494.249 51.4206 499.088 53.8468 503.927 56.273C523.973 66.671 542.292 79.8417 556.117 98.2114C575.127 122.82 577.201 150.548 561.647 177.929C553.698 192.14 542.638 203.231 529.849 212.935C504.618 231.652 476.276 243.436 446.552 252.794C403.003 266.312 358.416 273.59 313.139 276.016C264.059 278.789 215.325 276.363 166.591 268.738C131.337 263.539 96.4282 255.22 63.5933 239.97C50.805 234.078 38.0167 226.453 26.9565 217.441C-1.73087 193.526 -7.95223 156.44 10.3662 123.513C19.3526 107.223 32.1409 93.7056 46.3118 81.9213C80.1836 53.8468 119.24 36.1703 160.716 23.3462C217.745 5.66965 275.811 -1.60892 335.259 0.470673C374.661 1.85707 414.063 5.66965 452.082 16.7608C463.488 19.8802 474.203 24.7326 485.263 28.8917C488.028 29.9315 490.447 31.6645 492.867 33.3975C499.088 38.2499 498.742 42.4091 491.83 46.9149C491.139 47.608 490.102 47.9546 488.719 48.6478ZM319.36 17.8006C319.36 17.454 319.36 17.1074 319.36 16.7608C317.286 16.7608 314.867 16.4142 312.793 16.4142C264.75 16.7608 217.399 23.6928 171.084 37.5567C130.991 49.341 92.6263 65.9778 59.7914 92.6658C46.6574 103.41 34.5604 115.195 25.9196 130.098C10.0206 157.826 15.205 187.98 40.0904 207.39C49.4225 214.668 59.7914 220.561 70.5059 225.413C99.5389 238.93 130.3 246.209 161.407 251.754C206.339 259.726 251.616 261.806 296.894 260.766C350.121 259.38 402.657 251.061 453.119 233.731C476.968 225.413 499.779 215.362 520.172 200.458C532.614 191.1 543.329 180.009 550.241 165.798C557.845 149.855 558.536 133.564 549.55 117.968C546.094 112.075 541.601 106.183 537.107 101.331C522.245 85.3873 504.272 74.2961 484.226 65.6312C459.341 54.8866 433.764 46.9149 407.15 41.7159C371.896 34.4373 336.296 30.9713 300.696 38.2499C298.968 38.5965 296.548 39.2897 295.166 38.5965C292.747 37.2101 289.636 35.4771 288.945 33.3975C288.253 31.3179 290.327 27.8519 292.055 26.119C294.129 24.386 297.24 23.6928 300.005 22.9996C306.572 20.5734 312.793 19.187 319.36 17.8006ZM429.962 28.8917C446.898 34.4373 463.488 39.6363 480.424 45.1819C464.871 35.1305 447.935 30.9713 429.962 28.8917Z" fill="#2563EB"/>
</svg>
