<svg width="579" height="391" viewBox="0 0 579 391" fill="none" xmlns="http://www.w3.org/2000/svg">
<path d="M537.045 152.152C543.391 187.161 531.431 221.926 510.807 250.157C486.155 283.923 450.348 308.887 412.565 326.05C367.516 346.335 318.631 356.719 269.217 356.5C225.868 356.281 181.348 347.87 143.101 326.977C111.932 309.911 84.5216 283.679 74.0994 248.963C63.8969 215.295 71.6586 179.896 89.7937 150.397C111.224 115.559 144.858 89.0097 180.811 70.3351C224.35 48.0735 272.152 35.3721 321.01 33.0834C365.384 30.8162 411.32 37.0573 452.032 55.61C484.788 70.5789 515.249 94.617 529.845 128.358C533.12 135.982 535.535 143.946 537.045 152.104C537.582 154.858 544.661 153.103 544.124 150.202C537.338 113.877 512.613 84.6458 482.03 65.1423C445.003 41.5187 400.41 30.8162 356.89 28.5733C306.197 26.1023 255.556 34.4121 208.319 52.9526C167.533 69.2137 128.334 93.5443 99.7278 127.285C76.3693 154.81 60.138 189.453 62.5788 226.192C65.0196 262.932 85.9129 294.162 114.495 315.835C148.666 341.751 191.551 354.623 233.703 359.158C284.042 364.264 334.891 358.51 382.811 342.287C425.623 327.928 466.702 305.328 498.481 272.928C524.158 246.72 544.294 212.711 545.857 175.41C546.198 167.01 545.616 158.598 544.124 150.324C543.635 147.471 536.533 149.227 537.045 152.152Z" fill="#2563EB"/>
<path d="M567.824 195.791C567.824 237.626 546.589 275.414 516.567 303.499C480.199 337.631 433.067 358.743 385.032 370.396C328.879 383.827 270.51 385.198 213.786 374.419C163.872 364.984 114.519 345.725 74.7828 313.666C42.5643 287.482 16.8383 251.45 11.9567 209.371C7.22157 168.438 23.9654 129.163 51.1559 99.1272C83.6185 63.2163 128.651 39.8365 174.563 25.989C229.961 9.65062 288.225 5.37741 345.418 13.458C396.675 20.5281 447.712 37.3986 490.353 67.0927C524.963 91.3258 554.765 125.359 564.504 167.389C566.673 176.703 567.787 186.23 567.824 195.791C567.824 199.619 575.024 198.717 575.024 195.328C574.902 152.079 553.057 113.365 522.156 84.2558C485.105 49.3689 436.729 27.6956 387.766 15.6522C330.097 1.72786 270.115 0.264987 211.834 11.3614C160.577 21.1132 109.808 40.958 69.169 74.0895C36.2182 100.98 9.80881 137.939 4.82959 180.993C-0.0520067 223.145 17.0336 263.883 44.9319 294.723C78.3952 331.706 124.526 355.915 171.853 370.299C228.442 387.008 287.96 391.406 346.395 383.196C399.165 375.882 451.593 358.572 495.479 327.903C531.114 303.012 561.6 267.832 571.631 224.681C573.852 215.087 574.982 205.273 575 195.426C575 191.476 567.824 192.403 567.824 195.791Z" fill="#2563EB"/>
<path d="M567.824 195.791C567.824 237.626 546.589 275.414 516.567 303.499C480.199 337.631 433.067 358.743 385.032 370.396C328.879 383.827 270.51 385.198 213.786 374.419C163.872 364.984 114.519 345.725 74.7828 313.666C42.5643 287.482 16.8383 251.45 11.9567 209.371C7.22157 168.438 23.9654 129.163 51.1559 99.1272C83.6185 63.2163 128.651 39.8365 174.563 25.989C229.961 9.65062 288.225 5.37741 345.418 13.458C396.675 20.5281 447.712 37.3986 490.353 67.0927C524.963 91.3258 554.765 125.359 564.504 167.389C566.673 176.703 567.787 186.23 567.824 195.791ZM567.824 195.791C567.824 199.619 575.024 198.717 575.024 195.328C574.902 152.079 553.057 113.365 522.156 84.2558C485.105 49.3689 436.729 27.6956 387.766 15.6522C330.097 1.72786 270.115 0.264987 211.834 11.3614C160.577 21.1132 109.808 40.958 69.169 74.0895C36.2182 100.98 9.80881 137.939 4.82959 180.993C-0.0520068 223.145 17.0336 263.883 44.9319 294.723C78.3952 331.706 124.526 355.915 171.853 370.299C228.442 387.008 287.96 391.406 346.395 383.196C399.165 375.882 451.593 358.572 495.479 327.903C531.114 303.012 561.6 267.832 571.631 224.681C573.852 215.087 574.982 205.273 575 195.426C575 191.476 567.824 192.403 567.824 195.791ZM537.045 152.152C543.391 187.161 531.431 221.926 510.807 250.157C486.155 283.923 450.348 308.887 412.565 326.05C367.516 346.335 318.631 356.719 269.217 356.5C225.868 356.281 181.348 347.87 143.101 326.977C111.932 309.911 84.5216 283.679 74.0994 248.963C63.8969 215.295 71.6586 179.896 89.7937 150.397C111.224 115.559 144.858 89.0097 180.811 70.3351C224.35 48.0735 272.152 35.3721 321.01 33.0834C365.384 30.8162 411.32 37.0573 452.032 55.61C484.788 70.5789 515.249 94.617 529.845 128.358C533.12 135.982 535.535 143.946 537.045 152.104C537.582 154.858 544.661 153.103 544.124 150.202C537.338 113.877 512.613 84.6458 482.03 65.1423C445.003 41.5187 400.41 30.8162 356.89 28.5733C306.197 26.1023 255.556 34.4121 208.319 52.9526C167.533 69.2137 128.334 93.5443 99.7278 127.285C76.3693 154.81 60.138 189.453 62.5788 226.192C65.0196 262.932 85.9129 294.162 114.495 315.835C148.666 341.751 191.551 354.623 233.703 359.158C284.042 364.264 334.891 358.51 382.811 342.287C425.623 327.928 466.702 305.328 498.481 272.928C524.158 246.72 544.294 212.711 545.857 175.41C546.198 167.01 545.616 158.598 544.124 150.324C543.635 147.471 536.533 149.227 537.045 152.152Z" stroke="#2563EB" stroke-width="7"/>
</svg>
